<?xml version="1.0" encoding="UTF-8" standalone="no"?>
<svg
   xmlns:dc="http://purl.org/dc/elements/1.1/"
   xmlns:cc="http://creativecommons.org/ns#"
   xmlns:rdf="http://www.w3.org/1999/02/22-rdf-syntax-ns#"
   xmlns:svg="http://www.w3.org/2000/svg"
   xmlns="http://www.w3.org/2000/svg"
   version="1.1"
   id="svg35"
   width="3000"
   height="450"
   viewBox="0 0 3000 450">
   <g>
    <path
       style="fill:none;stroke:#000000;stroke-width:1px;stroke-linecap:butt;stroke-linejoin:miter;stroke-opacity:1"
       d="M 50,25 V 430 h 80 V 250 h -30 V 25 Z"
       id="c2"
       class="white" />
    <path
       style="fill:#000000;"
       d="M 100,25 V 250 h 50 V 25 Z"
       id="cs2"
       class="black" />
    <path
       style="fill:none;stroke:#000000;stroke-width:1px;stroke-linecap:butt;stroke-linejoin:miter;stroke-opacity:1"
       d="M 150,25 V 250 h -20 V 430 h 80 V 250 h -20 V 25 Z"
       id="d2"
       class="white" />
    <path
       style="fill:#000000;stroke:#000000;stroke-width:0.539288"
       d="M 190,25 V 250 h 50 V 25 Z"
       id="ds2"
       class="black" />
    <path
       style="fill:none;stroke:#000000;stroke-width:1px;stroke-linecap:butt;stroke-linejoin:miter;stroke-opacity:1"
       d="M 240,25 V 250 h -30 V 430 h 80 V 25 Z"
       id="e2"
       class="white" />
    <path
       style="fill:none;stroke:#000000;stroke-width:1px;stroke-linecap:butt;stroke-linejoin:miter;stroke-opacity:1"
       d="M 290,25 V 430 h 80 V 250 h -30 V 25 Z"
       id="f2"
       class="white" />
    <path
       style="fill:#000000;stroke:#000000;stroke-width:0.540169"
       d="M 340,25 V 250 h 50 V 25 Z"
       id="fs2"
       class="black" />
    <path
       style="fill:none;stroke:#000000;stroke-width:1px;stroke-linecap:butt;stroke-linejoin:miter;stroke-opacity:1"
       d="M 390,25 V 250 h -20 V 430 h 80 V 250 h -25 V 25 Z"
       id="g2"
       class="white" />
    <path
       style="fill:#000000;stroke:#000000;stroke-width:0.536724"
       d="M 425,25 V 250 h 50 V 25 Z"
       id="gs2"
       class="black" />
    <path
       style="fill:none;stroke:#000000;stroke-width:1px;stroke-linecap:butt;stroke-linejoin:miter;stroke-opacity:1"
       d="M 475,25 V 250 h -25 V 430 h 80 V 250 h -20 V 25 Z "
       id="a2"
       class="white" />
    <path
       style="fill:#000000;stroke:#000000;stroke-width:0.538655"
       d="M 510,25 V 250 h 50 V 25 Z"
       id="as2"
       class="black" />
    <path
       style="fill:none;stroke:#000000;stroke-width:1px;stroke-linecap:butt;stroke-linejoin:miter;stroke-opacity:1"
       d="M 560,25 V 250 h -30 V 430 h 80 V 25 Z"
       id="b2"
       class="white" />
   </g>

   <g>
    <path
       id="c3"
       d="M 610,25 V 430 h 80 V 250 h -30 V 25 Z"
       style="display:inline;fill:none;stroke:#000000;stroke-width:1px;stroke-linecap:butt;stroke-linejoin:miter;stroke-opacity:1" />
    <path
       style="fill:#000000;stroke:#000000;stroke-width:0.529412"
       d="M 660,25 V 250 h 50 V 25 Z"
       id="cs3" />
    <path
       id="d3"
       d="M 710,25 V 250 h -20 V 430 h 80 V 250 h -20 V 25 Z"
       style="fill:none;stroke:#000000;stroke-width:1px;stroke-linecap:butt;stroke-linejoin:miter;stroke-opacity:1" />
    <path
       style="fill:#000000;stroke:#000000;stroke-width:0.534122"
       d="M 750,25 V 250 h 50 V 25 Z"
       id="ds3" />
    <path
       id="e3"
       d="M 800,25 V 250 h -30 V 430 h 80 V 25 Z"
       style="display:inline;fill:none;stroke:#000000;stroke-width:1px;stroke-linecap:butt;stroke-linejoin:miter;stroke-opacity:1" />
    <path
       id="f3"
       d="M 850,25 V 430 h 80 V 250 h -30 V 25 Z"
       style="fill:none;stroke:#000000;stroke-width:1px;stroke-linecap:butt;stroke-linejoin:miter;stroke-opacity:1" />
    <path
       style="fill:#000000;stroke:#000000;stroke-width:0.540169"
       d="M 900,25 V 250 h 50 V 25 Z"
       id="fs3" />
    <path
       id="g3"
       d="M 950,25 V 250 h -20 V 430 h 80 V 250 h -25 V 25 Z"
       style="display:inline;fill:none;stroke:#000000;stroke-width:1px;stroke-linecap:butt;stroke-linejoin:miter;stroke-opacity:1" />
    <path
       style="fill:#000000;stroke:#000000;stroke-width:0.538391"
       d="M 985,25 V 250 h 50 V 25 Z"
       id="gs3" />
    <path
       id="a3"
       d="M 1035,25 V 250 h -25 V 430 h 80 V 250 h -20 V 25 Z "
       style="fill:none;stroke:#000000;stroke-width:1px;stroke-linecap:butt;stroke-linejoin:miter;stroke-opacity:1" />
    <path
       style="fill:#000000;stroke:#000000;stroke-width:0.540969"
       d="M 1070,25 V 250 h 50 V 25 Z"
       id="as3" />
    <path
       id="b3"
       d="M 1120,25 V 250 h -30 V 430 h 80 V 25 Z"
       style="display:inline;fill:none;stroke:#000000;stroke-width:1px;stroke-linecap:butt;stroke-linejoin:miter;stroke-opacity:1" />
   </g>

   <g>
    <path
       id="c4"
       d="M 1170,25 V 430 h 80 V 250 h -30 V 25 Z"
       style="display:inline;fill:none;stroke:#000000;stroke-width:1px;stroke-linecap:butt;stroke-linejoin:miter;stroke-opacity:1" />
    <path
       style="fill:#000000;stroke:#000000;stroke-width:0.536724"
       d="M 1220,25 V 250 h 50 V 25 Z"
       id="cs4" />
    <path
       id="d4"
       d="M 1270,25 V 250 h -20 V 430 h 80 V 250 h -20 V 25 Z"
       style="fill:none;stroke:#000000;stroke-width:1px;stroke-linecap:butt;stroke-linejoin:miter;stroke-opacity:1" />
    <path
       style="fill:#000000;stroke:#000000;stroke-width:0.539288"
       d="M 1310,25 V 250 h 50 V 25 Z"
       id="ds4" />
    <path
       id="e4"
       d="M 1360,25 V 250 h -30 V 430 h 80 V 25 Z"
       style="display:inline;fill:none;stroke:#000000;stroke-width:1px;stroke-linecap:butt;stroke-linejoin:miter;stroke-opacity:1" />
    <path
       id="f4"
       d="M 1410,25 V 430 h 80 V 250 h -30 V 25 Z"
       style="fill:none;stroke:#000000;stroke-width:1px;stroke-linecap:butt;stroke-linejoin:miter;stroke-opacity:1" />
    <path
       style="fill:#000000;stroke:#000000;stroke-width:0.540169"
       d="M 1460,25 V 250 h 50 V 25 Z"
       id="fs4" />
    <path
       id="g4"
       d="M 1510,25 V 250 h -20 V 430 h 80 V 250 h -25 V 25 Z"
       style="display:inline;fill:none;stroke:#000000;stroke-width:1px;stroke-linecap:butt;stroke-linejoin:miter;stroke-opacity:1" />
    <path
       style="fill:#000000;stroke:#000000;stroke-width:0.541287"
       d="M 1545,25 V 250 h 50 V 25 Z"
       id="gs4" />
    <path
       id="a4"
       d="M 1595,25 V 250 h -25 V 430 h 80 V 250 h -20 V 25 Z "
       style="fill:none;stroke:#000000;stroke-width:1px;stroke-linecap:butt;stroke-linejoin:miter;stroke-opacity:1" />
    <path
       style="fill:#000000;stroke:#000000;stroke-width:0.540315"
       d="M 1630,25 V 250 h 50 V 25 Z"
       id="as4" />
    <path
       id="b4"
       d="M 1680,25 V 250 h -30 V 430 h 80 V 25 Z"
       style="display:inline;fill:none;stroke:#000000;stroke-width:1px;stroke-linecap:butt;stroke-linejoin:miter;stroke-opacity:1" />
   </g>

   <g>
    <path
       id="c5"
       d="M 1730,25 V 430 h 80 V 250 h -30 V 25 Z"
       style="display:inline;fill:none;stroke:#000000;stroke-width:1px;stroke-linecap:butt;stroke-linejoin:miter;stroke-opacity:1" />
    <path
       style="fill:#000000;stroke:#000000;stroke-width:0.540332"
       d="M 1780,25 V 250 h 50 V 25 Z"
       id="cs5" />
    <path
       id="d5"
       d="M 1830,25 V 250 h -20 V 430 h 80 V 250 h -20 V 25 Z"
       style="fill:none;stroke:#000000;stroke-width:1px;stroke-linecap:butt;stroke-linejoin:miter;stroke-opacity:1" />
    <path
       style="fill:#000000;stroke:#000000;stroke-width:0.536492"
       d="M 1870,25 V 250 h 50 V 25 Z"
       id="ds5" />
    <path
       id="e5"
       d="M 1920,25 V 250 h -30 V 430 h 80 V 25 Z"
       style="display:inline;fill:none;stroke:#000000;stroke-width:1px;stroke-linecap:butt;stroke-linejoin:miter;stroke-opacity:1" />
    <path
       id="f5"
       d="M 1970,25 V 430 h 80 V 250 h -30 V 25 Z"
       style="fill:none;stroke:#000000;stroke-width:1px;stroke-linecap:butt;stroke-linejoin:miter;stroke-opacity:1" />
    <path
       style="fill:#000000;stroke:#000000;stroke-width:0.534046"
       d="M 2020,25 V 250 h 50 V 25 Z"
       id="fs5" />
    <path
       id="g5"
       d="M 2070,25 V 250 h -20 V 430 h 80 V 250 h -25 V 25 Z"
       style="display:inline;fill:none;stroke:#000000;stroke-width:1px;stroke-linecap:butt;stroke-linejoin:miter;stroke-opacity:1" />
    <path
       style="fill:#000000;stroke:#000000;stroke-width:0.540457"
       d="M 2105,25 V 250 h 50 V 25 Z"
       id="gs5" />
    <path
       id="a5"
       d="M 2155,25 V 250 h -25 V 430 h 80 V 250 h -20 V 25 Z "
       style="fill:none;stroke:#000000;stroke-width:1px;stroke-linecap:butt;stroke-linejoin:miter;stroke-opacity:1" />
    <path
       style="fill:#000000;stroke:#000000;stroke-width:0.5339"
       d="M 2190,25 V 250 h 50 V 25 Z"
       id="as5" />
    <path
       id="b5"
       d="M 2240,25 V 250 h -30 V 430 h 80 V 25 Z"
       style="display:inline;fill:none;stroke:#000000;stroke-width:1px;stroke-linecap:butt;stroke-linejoin:miter;stroke-opacity:1" />
   </g>

   <g>
    <path
       id="c6"
       d="M 2290,25 V 430 h 80 V 250 h -30 V 25 Z"
       style="display:inline;fill:none;stroke:#000000;stroke-width:1px;stroke-linecap:butt;stroke-linejoin:miter;stroke-opacity:1" />
    <path
       style="fill:#000000;stroke:#000000;stroke-width:0.543218"
       d="M 2340,25 V 250 h 50 V 25 Z"
       id="cs6" />
    <path
       id="d6"
       d="M 2390,25 V 250 h -20 V 430 h 80 V 250 h -20 V 25 Z"
       style="fill:none;stroke:#000000;stroke-width:1px;stroke-linecap:butt;stroke-linejoin:miter;stroke-opacity:1" />
    <path
       style="fill:#000000;stroke:#000000;stroke-width:0.534809"
       d="M 2430,25 V 250 h 50 V 25 Z"
       id="ds6" />
    <path
       id="e6"
       d="M 2480,25 V 250 h -30 V 430 h 80 V 25 Z"
       style="display:inline;fill:none;stroke:#000000;stroke-width:1px;stroke-linecap:butt;stroke-linejoin:miter;stroke-opacity:1" />
    <path
       id="f6"
       d="M 2530,25 V 430 h 80 V 250 h -30 V 25 Z"
       style="fill:none;stroke:#000000;stroke-width:1px;stroke-linecap:butt;stroke-linejoin:miter;stroke-opacity:1" />
    <path
       style="fill:#000000;stroke:#000000;stroke-width:0.540169"
       d="M 2580,25 V 250 h 50 V 25 Z"
       id="fs6" />
    <path
       id="g6"
       d="M 2630,25 V 250 h -20 V 430 h 80 V 250 h -25 V 25 Z"
       style="display:inline;fill:none;stroke:#000000;stroke-width:1px;stroke-linecap:butt;stroke-linejoin:miter;stroke-opacity:1" />
    <path
       style="fill:#000000;stroke:#000000;stroke-width:0.536713"
       d="M 2665,25 V 250 h 50 V 25 Z"
       id="gs6" />
    <path
       id="a6"
       d="M 2715,25 V 250 h -25 V 430 h 80 V 250 h -20 V 25 Z "
       style="fill:none;stroke:#000000;stroke-width:1px;stroke-linecap:butt;stroke-linejoin:miter;stroke-opacity:1" />
    <path
       style="fill:#000000;stroke:#000000;stroke-width:0.534619"
       d="M 2750,25 V 250 h 50 V 25 Z"
       id="as6" />
    <path
       id="b6"
       d="M 2800,25 V 250 h -30 V 430 h 80 V 25 Z"
       style="display:inline;fill:none;stroke:#000000;stroke-width:1px;stroke-linecap:butt;stroke-linejoin:miter;stroke-opacity:1" />
   </g>
</svg>
